# Blender v2.79 (sub 0) OBJ File: ''
# www.blender.org
mtllib world.mtl
o Plane
v -5.000000 0.000000 5.000000
v 5.000000 0.000000 5.000000
v -5.000000 0.000000 -5.000000
v 5.000000 0.000000 -5.000000
v -10.000000 3.064710 10.000000
v 10.000000 3.064710 10.000000
v -10.000000 3.064710 -10.000000
v 10.000000 3.064710 -10.000000
v -40.000000 3.064710 40.000000
v 40.000000 3.064710 40.000000
v -40.000000 3.064710 -40.000000
v 40.000000 3.064710 -40.000000
v -60.000000 3.064710 40.000000
v -60.000000 3.064710 -40.000000
v -40.000000 8.064710 55.000000
v -60.000000 8.064710 55.000000
v -40.000000 13.064700 40.000000
v 40.000000 13.064700 40.000000
v 40.000000 8.064710 55.000000
v -40.000000 8.064710 70.000000
v -60.000000 8.064710 70.000000
v 40.000000 8.064710 70.000000
vn 0.0000 1.0000 0.0000
vn 0.0000 0.8526 0.5226
vn 0.0000 0.8526 -0.5226
vn -0.5226 0.8526 0.0000
vn 0.5226 0.8526 0.0000
vn 0.0000 0.9487 -0.3162
vn -1.0000 0.0000 0.0000
vn 0.0000 0.0000 -1.0000
vn 0.0000 0.9487 0.3162
usemtl None
s off
f 2//1 3//1 1//1
f 8//2 3//2 4//2
f 5//3 2//3 1//3
f 6//4 4//4 2//4
f 7//5 1//5 3//5
f 12//1 7//1 8//1
f 9//1 6//1 5//1
f 10//1 8//1 6//1
f 11//1 5//1 7//1
f 14//1 9//1 11//1
f 16//6 9//6 13//6
f 15//7 17//7 9//7
f 9//8 18//8 10//8
f 17//9 19//9 18//9
f 20//1 19//1 15//1
f 21//1 15//1 16//1
f 2//1 4//1 3//1
f 8//2 7//2 3//2
f 5//3 6//3 2//3
f 6//4 8//4 4//4
f 7//5 5//5 1//5
f 12//1 11//1 7//1
f 9//1 10//1 6//1
f 10//1 12//1 8//1
f 11//1 9//1 5//1
f 14//1 13//1 9//1
f 16//6 15//6 9//6
f 9//8 17//8 18//8
f 17//9 15//9 19//9
f 20//1 22//1 19//1
f 21//1 20//1 15//1
